/* XPM */
static char * sk1_xpm[] = {
"32 32 476 2",
"  	c None",
". 	c #013D75",
"+ 	c #01427F",
"@ 	c #013B70",
"# 	c #7F098F",
"$ 	c #A300A3",
"% 	c #B700B7",
"& 	c #A900A9",
"* 	c #9F009F",
"= 	c #980098",
"- 	c #960096",
"; 	c #9A009A",
"> 	c #A100A1",
", 	c #8C008C",
"' 	c #014889",
") 	c #1E6EB9",
"! 	c #96BCDF",
"~ 	c #AAC8E4",
"{ 	c #AAC9E5",
"] 	c #A9C8E5",
"^ 	c #A9C9E6",
"/ 	c #A8C8E5",
"( 	c #A8C8E4",
"_ 	c #A8C7E4",
": 	c #A4C5E3",
"< 	c #9FC2E2",
"[ 	c #9ABFE0",
"} 	c #91B8DD",
"| 	c #8CB6DC",
"1 	c #86B2DA",
"2 	c #4F8EC9",
"3 	c #01498C",
"4 	c #850894",
"5 	c #CA02CA",
"6 	c #FD68FD",
"7 	c #FC7FFC",
"8 	c #FA4AFA",
"9 	c #F506F5",
"0 	c #F400F4",
"a 	c #F500F5",
"b 	c #FA00FA",
"c 	c #E927E9",
"d 	c #014A8D",
"e 	c #78AEE1",
"f 	c #BAD4ED",
"g 	c #BAD5ED",
"h 	c #B4D1EC",
"i 	c #0C5599",
"j 	c #DF58DF",
"k 	c #FAC0FA",
"l 	c #FBA9FB",
"m 	c #FC8EFC",
"n 	c #FD2AFD",
"o 	c #FF00FF",
"p 	c #ED4EED",
"q 	c #014483",
"r 	c #7AAFE1",
"s 	c #A1C6E8",
"t 	c #A4C8E9",
"u 	c #A6C9E9",
"v 	c #A7CAE9",
"w 	c #A9CBEA",
"x 	c #AACCEA",
"y 	c #AACBEA",
"z 	c #A5C9E9",
"A 	c #A3C7E9",
"B 	c #99C1E6",
"C 	c #014B8F",
"D 	c #850893",
"E 	c #E572E5",
"F 	c #FD35FD",
"G 	c #ED57ED",
"H 	c #A302A3",
"I 	c #01407B",
"J 	c #2F82CE",
"K 	c #84B5E2",
"L 	c #86B6E2",
"M 	c #8AB9E4",
"N 	c #8FBBE4",
"O 	c #93BEE6",
"P 	c #97C0E6",
"Q 	c #9AC2E7",
"R 	c #9DC3E8",
"S 	c #9EC4E8",
"T 	c #9BC3E7",
"U 	c #97C1E6",
"V 	c #8DBAE4",
"W 	c #80B3E2",
"X 	c #6FA9DE",
"Y 	c #599BD9",
"Z 	c #1B78CE",
"` 	c #014A8E",
" .	c #850793",
"..	c #FC92FC",
"+.	c #FD46FD",
"@.	c #FF0DFF",
"#.	c #EE5AEE",
"$.	c #013E77",
"%.	c #0165C1",
"&.	c #046AC9",
"*.	c #0F71CC",
"=.	c #237DD0",
"-.	c #3487D4",
";.	c #4490D6",
">.	c #5298D9",
",.	c #61A2DD",
"'.	c #6CA8DF",
").	c #70AAE1",
"!.	c #68A6DE",
"~.	c #5B9EDC",
"{.	c #4A93D7",
"].	c #3789D5",
"^.	c #277FD1",
"/.	c #0D70CC",
"(.	c #0169C9",
"_.	c #E571E5",
":.	c #FC96FC",
"<.	c #FD55FD",
"[.	c #FF19FF",
"}.	c #FF03FF",
"|.	c #086DCA",
"1.	c #1474CD",
"2.	c #1F7BCF",
"3.	c #2981D2",
"4.	c #3286D3",
"5.	c #3789D4",
"6.	c #3A8BD5",
"7.	c #3688D4",
"8.	c #3085D3",
"9.	c #1D79CF",
"0.	c #1273CD",
"a.	c #056BCA",
"b.	c #014D93",
"c.	c #E471E4",
"d.	c #FBABFB",
"e.	c #FC99FC",
"f.	c #FD62FD",
"g.	c #FF25FF",
"h.	c #EE5BEE",
"i.	c #01417C",
"j.	c #0165C2",
"k.	c #046BCA",
"l.	c #0B6FCB",
"m.	c #1373CD",
"n.	c #1776CE",
"o.	c #1977CE",
"p.	c #01519A",
"q.	c #860895",
"r.	c #E470E4",
"s.	c #FBADFB",
"t.	c #FC9CFC",
"u.	c #FE6FFE",
"v.	c #FF2FFF",
"w.	c #FF14FF",
"x.	c #EF5CEF",
"y.	c #A504A5",
"z.	c #0369C6",
"A.	c #076DCB",
"B.	c #096DC9",
"C.	c #0B6ECA",
"D.	c #0C6ECA",
"E.	c #0D6FCB",
"F.	c #0E70CA",
"G.	c #0F71CB",
"H.	c #0155A3",
"I.	c #860896",
"J.	c #E46EE4",
"K.	c #FC9FFC",
"L.	c #FD7AFD",
"M.	c #FF39FF",
"N.	c #FF1CFF",
"O.	c #EF5DEF",
"P.	c #A506A5",
"Q.	c #013F78",
"R.	c #2E72B3",
"S.	c #528CC1",
"T.	c #538CC1",
"U.	c #558EC2",
"V.	c #558EC3",
"W.	c #568EC2",
"X.	c #578FC3",
"Y.	c #5890C3",
"Z.	c #588FC3",
"`.	c #5A91C4",
" +	c #5B91C4",
".+	c #5B92C5",
"++	c #5D94C6",
"@+	c #5E94C5",
"#+	c #5990C4",
"$+	c #4A86BF",
"%+	c #024C8F",
"&+	c #860894",
"*+	c #FBAEFB",
"=+	c #FCA0FC",
"-+	c #FD84FD",
";+	c #FF40FF",
">+	c #FF21FF",
",+	c #01325F",
"'+	c #01386B",
")+	c #01386A",
"!+	c #01376A",
"~+	c #013D76",
"{+	c #940197",
"]+	c #E36CE3",
"^+	c #FCA1FC",
"/+	c #FD86FD",
"(+	c #FF44FF",
"_+	c #FF23FF",
":+	c #EF5EEF",
"<+	c #A606A6",
"[+	c #000000",
"}+	c #0D0D0D",
"|+	c #020202",
"1+	c #970097",
"2+	c #E36BE3",
"3+	c #FE7FFE",
"4+	c #FF43FF",
"5+	c #EF5FEF",
"6+	c #A608A6",
"7+	c #4D4D4D",
"8+	c #ADADAD",
"9+	c #A1A1A1",
"0+	c #5F5F5F",
"a+	c #4A4A4A",
"b+	c #E266E2",
"c+	c #FD73FD",
"d+	c #FF3EFF",
"e+	c #A4A4A4",
"f+	c #B9B9B9",
"g+	c #848484",
"h+	c #060606",
"i+	c #555555",
"j+	c #E060E0",
"k+	c #FBACFB",
"l+	c #FD64FD",
"m+	c #FF36FF",
"n+	c #EF60EF",
"o+	c #A70AA7",
"p+	c #ABABAB",
"q+	c #878787",
"r+	c #171717",
"s+	c #090909",
"t+	c #DF5BDF",
"u+	c #FD54FD",
"v+	c #FF2CFF",
"w+	c #FF16FF",
"x+	c #EF61EF",
"y+	c #A9A9A9",
"z+	c #A2A2A2",
"A+	c #8C8C8C",
"B+	c #2A2A2A",
"C+	c #0C0C0C",
"D+	c #DE55DE",
"E+	c #FD42FD",
"F+	c #FF22FF",
"G+	c #909090",
"H+	c #3A3A3A",
"I+	c #0A0A0A",
"J+	c #575757",
"K+	c #DC4FDC",
"L+	c #FE2FFE",
"M+	c #A80CA8",
"N+	c #A8A8A8",
"O+	c #A6A6A6",
"P+	c #949494",
"Q+	c #494949",
"R+	c #222222",
"S+	c #070707",
"T+	c #585858",
"U+	c #DC4ADC",
"V+	c #FF18FF",
"W+	c #FF08FF",
"X+	c #EF62EF",
"Y+	c #A90DA9",
"Z+	c #979797",
"`+	c #2C2C2C",
" @	c #0E0E0E",
".@	c #DA43DA",
"+@	c #FC87FC",
"@@	c #A7A7A7",
"#@	c #BABABA",
"$@	c #AAAAAA",
"%@	c #9B9B9B",
"&@	c #646464",
"*@	c #333333",
"=@	c #131313",
"-@	c #D11CD1",
";@	c #FBAAFB",
">@	c #FBA5FB",
",@	c #FD45FD",
"'@	c #EE50EE",
")@	c #9D9D9D",
"!@	c #6F6F6F",
"~@	c #383838",
"{@	c #5A5A5A",
"]@	c #8A008A",
"^@	c #A500A5",
"/@	c #C006C0",
"(@	c #B904B9",
"_@	c #B400B4",
":@	c #B900B9",
"<@	c #C000C0",
"[@	c #CB00CB",
"}@	c #C402C4",
"|@	c #990099",
"1@	c #6E6E6E",
"2@	c #181818",
"3@	c #5B5B5B",
"4@	c #0E0C00",
"5@	c #947601",
"6@	c #967801",
"7@	c #967603",
"8@	c #966A12",
"9@	c #986A13",
"0@	c #976A13",
"a@	c #966912",
"b@	c #996B14",
"c@	c #8A5D15",
"d@	c #9C9C9C",
"e@	c #626262",
"f@	c #393939",
"g@	c #0B0B0B",
"h@	c #5C5C5C",
"i@	c #564400",
"j@	c #B28E01",
"k@	c #D0AC1C",
"l@	c #E3CB6E",
"m@	c #E7D17B",
"n@	c #E6D079",
"o@	c #E6D078",
"p@	c #E6CF78",
"q@	c #E6CF77",
"r@	c #E4CE75",
"s@	c #E4CD74",
"t@	c #E4CD71",
"u@	c #E2CA6A",
"v@	c #E1C865",
"w@	c #E0C65F",
"x@	c #DDC359",
"y@	c #DDC152",
"z@	c #DBBE4C",
"A@	c #DABC45",
"B@	c #CAA206",
"C@	c #957701",
"D@	c #9F9F9F",
"E@	c #999999",
"F@	c #535353",
"G@	c #343434",
"H@	c #161616",
"I@	c #5D4A00",
"J@	c #CEA401",
"K@	c #FAEAAA",
"L@	c #FAEEC0",
"M@	c #FADE70",
"N@	c #A58401",
"O@	c #959595",
"P@	c #444444",
"Q@	c #101010",
"R@	c #594700",
"S@	c #C7A211",
"T@	c #FAEAA9",
"U@	c #FAEAAC",
"V@	c #FAEBAD",
"W@	c #FAEBAE",
"X@	c #F7DC74",
"Y@	c #9A7B01",
"Z@	c #969696",
"`@	c #A5A5A5",
" #	c #919191",
".#	c #303030",
"+#	c #232323",
"@#	c #5D5D5D",
"##	c #564500",
"$#	c #BA9402",
"%#	c #FBE079",
"&#	c #FBE58E",
"*#	c #FBE58F",
"=#	c #FBE693",
"-#	c #FBE797",
";#	c #FBE79A",
">#	c #FBE89D",
",#	c #FBE99F",
"'#	c #FBE9A1",
")#	c #FBE89E",
"!#	c #FBE79B",
"~#	c #FBE798",
"{#	c #FBE694",
"]#	c #FBE590",
"^#	c #FBE58C",
"/#	c #FBE075",
"(#	c #F3C820",
"_#	c #929292",
":#	c #888888",
"<#	c #010101",
"[#	c #544300",
"}#	c #B49001",
"|#	c #FBCC13",
"1#	c #FDD22A",
"2#	c #FDD53A",
"3#	c #FDD84B",
"4#	c #FDDC59",
"5#	c #FDDE66",
"6#	c #FCE173",
"7#	c #FBE27D",
"8#	c #FCE586",
"9#	c #FDE486",
"0#	c #FCE17A",
"a#	c #FDE06C",
"b#	c #FDDC5D",
"c#	c #FDD94C",
"d#	c #FDD63A",
"e#	c #FDD124",
"f#	c #FDCC0C",
"g#	c #FDCA01",
"h#	c #F3C201",
"i#	c #8E8E8E",
"j#	c #797979",
"k#	c #141414",
"l#	c #534200",
"m#	c #B38F01",
"n#	c #FDCB05",
"o#	c #FDCE12",
"p#	c #FDD01E",
"q#	c #FDD534",
"r#	c #FDD63C",
"s#	c #FED741",
"t#	c #FED845",
"u#	c #FDD63B",
"v#	c #FDD229",
"w#	c #FDCD11",
"x#	c #FDCB04",
"y#	c #F6C501",
"z#	c #9B7C01",
"A#	c #898989",
"B#	c #676767",
"C#	c #554400",
"D#	c #B59101",
"E#	c #FDCB08",
"F#	c #FDCD10",
"G#	c #FDCF18",
"H#	c #FDD122",
"I#	c #FDD020",
"J#	c #FDCF1B",
"K#	c #FDCE13",
"L#	c #FDCC0A",
"M#	c #FCC901",
"N#	c #BC9601",
"O#	c #1B1B1B",
"P#	c #818181",
"Q#	c #050505",
"R#	c #584600",
"S#	c #B49003",
"T#	c #E9C740",
"U#	c #EBCC52",
"V#	c #ECCE59",
"W#	c #EED05C",
"X#	c #ECD05D",
"Y#	c #EDD05E",
"Z#	c #ECD05E",
"`#	c #EDD060",
" $	c #EDD161",
".$	c #EDD162",
"+$	c #EDD163",
"@$	c #EDD164",
"#$	c #EDD05F",
"$$	c #E7C231",
"%$	c #AF8C01",
"&$	c #322700",
"*$	c #907301",
"=$	c #A18001",
"-$	c #A18102",
";$	c #A18002",
">$	c #A18203",
",$	c #A38305",
"'$	c #A38306",
")$	c #937601",
". + + + + + + + + + + + + + + + + + + + @ # $ % & * = - ; $ > , ",
"' ) ! ~ { { ] ^ / ( / _ : < [ ! } | 1 2 3 4 5 6 7 8 9 0 a b c $ ",
"d e f f f f f f f g g g f f f f f f f h i 4 j k l m n o o o p $ ",
"q r s s s t u v w x x y w v z A s s s B C D E k l m F o o o G H ",
"I J K L M N O P Q R S R T U O V W X Y Z `  .E k l ..+.@.o o #.H ",
"$.%.&.*.=.-.;.>.,.'.).!.~.{.].^.Z /.(.(.C  ._.k l :.<.[.}.o #.H ",
"$.%.(.(.|.1.2.3.4.5.6.6.7.8.^.9.0.a.(.(.b.4 c.k d.e.f.g.@.o h.H ",
"i.j.(.(.(.(.k.l.m.n.o.o.n.m./.a.(.(.(.(.p.q.r.k s.t.u.v.w.o x.y.",
"q z.A.B.C.l.l.l.l.l.D.E.E.E.F.G.G.G.*.l.H.I.J.k s.K.L.M.N.o O.P.",
"Q.R.S.T.T.U.V.W.X.Y.Z.`.`. +.+++++@+#+$+%+&+J.k *+=+-+;+>+o O.P.",
",+'+'+'+)+)+)+'+'+!+~+$.$.$.$.$.$.$.$.$.. {+]+k *+^+/+(+_+o :+<+",
"[+[+[+}+[+[+[+[+[+|+[+                    1+2+k *+=+3+4+_+o 5+6+",
"[+7+8+9+0+[+[+[+|+a+[+                    1+b+k s.K.c+d+>+o 5+6+",
"[+e+f+9+g+h+[+[+h+i+[+                    1+j+k k+t.l+m+N.o n+o+",
"[+p+f+9+q+r+[+[+s+i+[+                    1+t+k d.e.u+v+w+o x+o+",
"[+y+f+z+A+B+C+[+s+i+[+                    1+D+k l :.E+F+@.o x+o+",
"[+y+f+e+G+H+r+[+I+J+[+                    1+K+k l ..L+w+}.o x+M+",
"[+N+f+O+P+Q+R+S+I+T+[+                    1+U+k l m V+W+o o X+Y+",
"[+N+f+N+Z+T+`+ @I+T+[+                    1+.@k l +@o o o o X+y.",
"[+@@#@$@%@&@*@=@I+T+[+                    1+-@;@>@,@o o o o '@$ ",
"[+O+#@$@)@!@~@r+I+{@[+                    ]@^@/@(@_@_@:@<@[@}@|@",
"[+O+#@$@)@1@H+2@I+3@4@5@6@6@6@6@6@6@6@6@6@7@8@9@0@a@8@0@9@b@b@c@",
"[+e+f+$@d@e@f@2@g@h@i@j@k@l@m@n@o@p@q@r@r@s@t@u@v@w@x@y@z@A@B@C@",
"[+D@f+N+E@F@G@H@g@3@I@J@K@L@L@L@L@L@L@L@L@L@L@L@L@L@L@L@L@L@M@N@",
"[+%@f+@@O@P@`+Q@g@h@R@S@T@T@T@T@K@U@V@V@W@W@V@V@U@K@T@T@T@T@X@Y@",
"[+Z@f+`@ #.#+#s+C+@###$#%#&#*#=#-#;#>#,#'#'#,#)#!#~#{#]#^#/#(#6@",
"[+_#f+z+:#R+2@<#}+0+[#}#|#1#2#3#4#5#6#7#8#9#0#a#b#c#d#e#f#g#h#6@",
"[+i#f+9+j#k#}+[+}+0+l#m#g#g#n#o#p#1#q#r#s#t#s#u#q#v#p#w#x#g#y#z#",
"[+A#f+9+B#S+[+[+}+0+C#D#g#g#g#g#E#F#G#p#H#e#H#I#J#K#L#g#g#g#M#N@",
"[+g+f+9+Q+[+[+[+}+i+R@N#g#g#g#g#g#g#g#g#g#g#g#g#g#g#g#g#g#g#g#j@",
"[+O#P#&@h+[+[+[+Q#.#R#S#T#U#V#W#X#Y#Z#`# $.$.$.$.$+$@$@$@$#$$$%$",
"[+[+[+[+[+[+[+[+[+[+&$*$=$=$=$=$=$=$=$=$=$=$-$;$>$,$,$'$'$=$=$)$"};
